<svg height="67" viewBox="0 0 60 67" width="60" xmlns="http://www.w3.org/2000/svg"><path d="m34.009 1.077c-2.48-1.436-5.538-1.436-8.018 0l-22 12.738c-2.47 1.431-3.991 4.069-3.991 6.923v25.517c0 2.855 1.521 5.493 3.991 6.924l22 12.738c2.48 1.436 5.538 1.436 8.018 0l22-12.738c2.47-1.431 3.991-4.069 3.991-6.924v-25.517c0-2.854-1.521-5.492-3.991-6.923zm-6.04 35.569 5.229 9.517h6.911l-5.801-9.984c1.838-.551 3.223-1.484 4.154-2.801.955-1.317 1.432-2.813 1.432-4.489 0-1.485-.346-2.826-1.038-4.023-.692-1.221-1.743-2.179-3.152-2.873-1.384-.694-3.067-1.042-5.049-1.042h-10.277v25.212h6.123v-9.517zm2.328-4.346h-3.796v-6.249h3.796c1.122 0 1.958.276 2.507.826.573.551.859 1.305.859 2.263 0 1.006-.286 1.784-.859 2.334-.549.551-1.385.826-2.507.826z" fill="#00f15e" fill-rule="evenodd"/></svg>