<svg fill="none" height="30" viewBox="0 0 111 30" width="111" xmlns="http://www.w3.org/2000/svg"><g fill="#fff"><path d="m0 30h29.9982l-29.9982-30z"/><path d="m17.3252 0 12.6729 12.6737v-12.6737z"/><path d="m44.6285 4.02441 6.0521 10.69959v-10.69959h6.4798v21.76529h-5.9298l-6.0526-10.6992v10.6992h-6.4793v-21.76529z"/><path d="m76.6226 4.02441-.6422 5.19715h-7.7025v3.91264h7.1663l-.656 5.0743h-6.5103v7.5812h-6.8467v-21.76529z"/><path d="m86.9098 4.02441h-7.0919v21.76529h7.0919z"/><path d="m91.4712 25.7897v-21.76529h10.1478c1.304 0 2.404.13762 3.301.41288.897.27524 1.625.66789 2.186 1.17695.56.51005.963 1.11086 1.208 1.80342.244.69305.366 1.44726.366 2.26216v.42818c0 .9372-.219 1.7679-.657 2.491-.438.7237-1.085 1.32-1.941 1.7886.978.4277 1.732 1.0295 2.262 1.8035.53.7749.794 1.7422.794 2.9039v.367c0 .9781-.163 1.8601-.488 2.6444-.327.7843-.836 1.4468-1.529 1.9864-.693.5402-1.579.958-2.659 1.2534-1.08.2955-2.374.4435-3.882.4435zm6.3885-13.4807h2.9343c.489 0 .866-.1426 1.131-.4282.265-.2851.398-.662.398-1.1311v-.3053c0-1.0191-.52-1.52866-1.56-1.52866h-2.9033zm0 8.5588h3.0563c.591 0 1.039-.1628 1.345-.4888.306-.3256.459-.774.459-1.3452v-.3364c0-.5905-.153-1.0438-.459-1.3605-.306-.3152-.764-.473-1.375-.473h-3.0263z"/><path d="m108.914 25.3112h-.234v-1.0087h-.378v-.2146h.989v.2146h-.377zm1.267-.2821h-.024l-.377-.5875v.8696h-.227v-1.2233h.25l.37.5801.369-.5801h.242v1.2233h-.226v-.8696z"/></g></svg>