<?xml version="1.0" standalone="no"?>
<!DOCTYPE svg PUBLIC "-//W3C//DTD SVG 1.1//EN" "http://www.w3.org/Graphics/SVG/1.1/DTD/svg11.dtd">
<svg viewBox="0 0 134 24" xmlns="http://www.w3.org/2000/svg" xmlns:xlink="http://www.w3.org/1999/xlink" width="134" height="24"><clipPath id="a"><path d="m0 0h133.2v24h-133.2z"/></clipPath><linearGradient id="b" gradientTransform="matrix(1 0 0 -1 0 26)" gradientUnits="userSpaceOnUse" x1="745.93" x2="6270.74" y1="-195.37" y2="-1936.59"><stop offset="0" stop-color="#0073b9"/><stop offset="1" stop-color="#0091d9"/></linearGradient><g clip-path="url(#a)" fill-rule="evenodd"><path d="m23.92 0v23.92h-23.92v-23.92zm-8.17 14.05h-3.87l2.48 4.22h4.01zm-5.4 0h-3.62v2.98h3.62zm-3.63-8.36v7.4h5.87c1.68-.01 2.22-.18 2.64-.36 1.52-.64 1.97-2.36 1.97-3.35s-.46-2.7-1.97-3.35c-.42-.19-1.37-.34-2.61-.35h-.2s-5.69 0-5.69 0z" fill="#0073b9"/><path d="m11.93 8.04c.62 0 1.67.09 1.67 1.32v.15c-.07 1.18-1.17 1.21-1.75 1.19h-1.5v-2.66z" fill="#0073b9"/><path d="m92.21 2.99c2.86 0 5.11.74 6.97 2.14l.21.16-2.41 3.39c-1.59-1.11-3.34-1.71-4.88-1.71-1.12 0-1.69.45-1.74 1.03v.08s0 .05 0 .05c0 .79.6 1.14 3.01 1.68 3.93.85 6.4 2.1 6.5 5.21v.19s0 .05 0 .05c0 3.54-2.82 5.65-7.05 5.65-2.98 0-5.82-.9-7.94-2.67l-.22-.19s2.69-3.2 2.69-3.2c1.72 1.36 3.64 2.08 5.65 2.08 1.24 0 1.93-.41 1.99-1.1v-.1s0-.05 0-.05c0-.72-.57-1.11-2.94-1.66-3.65-.82-6.47-1.84-6.58-5.25v-.2s0-.05 0-.05c0-3.22 2.56-5.55 6.75-5.55zm-22.28.3 4.17 6.72 4.16-6.72h5.11v17.35h-4.81v-9.97l-4.46 6.8h-.11l-4.43-6.74v9.91h-2.98l-1.76-4.1v-13.25zm-13.08-.13 7.42 17.47h-5.18l-1.27-3.1h-6.73l-1.24 3.1h-1.43l-2.26-3.29 6.02-14.18h4.66zm63.58.13 3.58 6.32 3.61-6.32h5.41l-6.63 10.78v6.57h-4.85v-6.49l-6.63-10.86zm-7.93 0 2.48 4.09h-8.68v2.63h7.65v3.79h-7.65v2.75h8.9v4.09h-13.69v-17.35h10.97zm-74.36 0c2.67 0 4.51.69 5.68 1.88.97.94 1.49 2.2 1.54 3.78v.25s0 .05 0 .05c0 2.57-1.33 4.31-3.39 5.24l-.19.09 4.17 6.04h-5.58l-3.51-5.25h-2.11v5.25h-4.84v-17.33h8.24zm16.35 5.58-1.96 4.93h3.91zm-16.6-1.42h-3.16v4.16h3.19c1.59 0 2.52-.73 2.59-1.92v-.13s0-.05 0-.05c0-1.36-1-2.06-2.62-2.06z" fill="url(#b)"/></g></svg>