<svg height="800" viewBox="0 0 512 512" width="800" xmlns="http://www.w3.org/2000/svg"><path fill="#bbdfc5" d="m343.644 129.572c25.132 0 49.092 4.961 71.144 13.708-30.716-80.8-108.838-138.232-200.407-138.232-118.396 0-214.381 95.985-214.381 214.385 0 52.546 18.935 100.658 50.315 137.936l-25.09 101.664 123.555-35.476c10.935 3.509 22.274 6.114 33.893 7.85-20.773-30.876-32.924-68.016-32.924-107.946 0-106.91 86.979-193.889 193.895-193.889z"/><path fill="#bab700" d="m512 327.249c0-88.798-71.988-160.787-160.782-160.787-88.803 0-160.792 71.989-160.792 160.787 0 88.799 71.988 160.787 160.792 160.787 17.161 0 33.69-2.716 49.198-7.693l92.668 26.609-18.814-76.246c23.534-27.958 37.73-64.045 37.73-103.457z"/></svg>